<?xml version="1.0" encoding="UTF-8" standalone="no"?>
<svg
   version="1.1"
   x="0"
   y="0"
   width="512"
   height="224.79108"
   viewBox="0 0 512.00002 224.79107"
   data-inject-url="https://rebianalytics.com.au/wp-content/themes/coded/img/logo.svg"
   id="svg891"
   sodipodi:docname="header_logo_v2.1.svg"
   inkscape:version="1.1 (c68e22c387, 2021-05-23)"
   xmlns:inkscape="http://www.inkscape.org/namespaces/inkscape"
   xmlns:sodipodi="http://sodipodi.sourceforge.net/DTD/sodipodi-0.dtd"
   xmlns="http://www.w3.org/2000/svg"
   xmlns:svg="http://www.w3.org/2000/svg">
  <defs
     id="defs895" />
  <sodipodi:namedview
     id="namedview893"
     pagecolor="#ffffff"
     bordercolor="#666666"
     borderopacity="1.0"
     inkscape:pageshadow="2"
     inkscape:pageopacity="0.0"
     inkscape:pagecheckerboard="0"
     showgrid="false"
     fit-margin-top="0"
     fit-margin-left="0"
     fit-margin-right="0"
     fit-margin-bottom="0"
     inkscape:showpageshadow="false"
     lock-margins="true"
     inkscape:snap-page="true"
     inkscape:zoom="2.1897766"
     inkscape:cx="85.853507"
     inkscape:cy="339.53235"
     inkscape:window-width="3840"
     inkscape:window-height="2097"
     inkscape:window-x="-8"
     inkscape:window-y="-8"
     inkscape:window-maximized="1"
     inkscape:current-layer="svg891" />
  <path
     d="m 0,112.39708 c 0,62.07309 50.320907,112.39399 112.39554,112.39399 62.07463,0 112.39707,-50.3209 112.39707,-112.39399 C 224.79261,50.320907 174.47017,0 112.39554,0 50.320907,0 0,50.320907 0,112.39708 Z m 141.07406,49.98504 c -0.91783,0 -1.79696,-0.36527 -2.44701,-1.01378 L 95.713732,118.48445 c -2.970159,-3.01505 -1.618961,-5.90319 2.443919,-5.90319 h 30.477029 c 0.91782,0 1.79696,0.36373 2.44546,1.01224 l 42.91641,42.88391 c 2.90516,3.04291 1.37751,5.90471 -2.44548,5.90471 z m 31.22458,-49.65691 h -21.7368 c -1.90992,0 -3.45768,-1.54931 -3.45768,-3.45926 V 88.538298 c 0,-4.996183 -0.92558,-5.749944 -4.11397,-5.749944 H 81.802428 c -3.188394,0 -4.115505,0.753761 -4.115505,5.749944 v 70.132292 c 0,1.91149 -1.547764,3.45925 -3.456157,3.45925 H 52.492419 c -1.911489,0 -3.459252,-1.54776 -3.459252,-3.45925 V 88.538298 c 0,-18.096458 14.671255,-32.767714 32.769261,-32.767714 h 61.187762 c 18.09646,0 32.7677,14.671256 32.7677,32.767714 v 20.727652 c 0,1.90995 -1.54929,3.45926 -3.45925,3.45926 z"
     fill="#fffffe"
     id="path888"
     style="fill:#ffffff;stroke-width:1.54775"
     sodipodi:nodetypes="ssscssccsscccsssssssssssssssscs" />
  <g
     id="g1030"
     transform="matrix(0.89508112,0,0,0.89508112,53.718469,24.854972)"
     style="fill:#ffffff">
    <path
       id="path1026"
       style="fill:#ffffff;stroke-width:1.35711"
       d="m 504.26219,38.247966 c -4.27219,0 -7.73576,3.464251 -7.73576,7.737804 0,4.273554 3.46357,7.737805 7.73576,7.737805 4.27356,0 7.73781,-3.464251 7.73781,-7.737805 0,-4.273553 -3.46425,-7.737804 -7.73781,-7.737804 z M 416.08537,38.4126 c -0.93369,0 -1.69106,0.757362 -1.69106,1.691056 v 68.004074 c 0,8.84702 7.17262,16.02032 16.02236,16.02032 h 33.20326 c 8.84703,0 16.02032,-7.1733 16.02032,-16.02032 V 74.044713 c 0,-8.84703 -7.17329,-16.022358 -16.02032,-16.022358 H 428.40651 V 40.103656 c 0,-0.933694 -0.75805,-1.691056 -1.69309,-1.691056 z m -68.00406,19.609755 c -8.84975,0 -16.02236,7.175328 -16.02236,16.022358 v 34.063017 c 0,8.84702 7.17262,16.02032 16.02236,16.02032 h 33.20324 c 8.84704,0 16.02236,-7.1733 16.02236,-16.02032 v -1.61789 c 0,-0.93369 -0.75871,-1.69309 -1.69105,-1.6931 h -10.63008 c -0.93369,0 -1.68903,0.75941 -1.68903,1.6931 v 1.61789 c 0,2.44145 -0.45422,2.81097 -2.0122,2.81097 h -33.20324 c -1.56067,0 -2.0122,-0.36952 -2.0122,-2.81097 V 97.680889 h 49.54675 c 0.93234,0 1.69105,-0.76075 1.69105,-1.69309 V 74.044713 c 0,-8.84703 -7.17531,-16.022358 -16.02236,-16.022358 z m -78.14838,0.002 c -8.84704,0 -16.02032,7.173295 -16.02032,16.020325 v 48.39228 c 0,0.93641 0.75601,1.69106 1.69105,1.69106 h 10.62805 c 0.93369,0 1.68903,-0.75465 1.68903,-1.69106 V 74.044713 c 0,-2.442806 0.45422,-2.810975 2.01219,-2.810975 h 33.20529 c 1.55931,0 2.01219,0.368169 2.01219,2.810975 v 8.754065 c 0,0.936408 0.75534,1.693089 1.68903,1.693089 h 10.62805 c 0.93504,0 1.69106,-0.756681 1.69106,-1.693089 v -8.754065 c 0,-8.84703 -7.17195,-16.020325 -16.02033,-16.020325 z m 228.99187,0 c -0.93641,0 -1.69105,0.756686 -1.69105,1.689024 v 62.723581 c 0,0.9337 0.75464,1.69309 1.69105,1.69309 h 10.62601 c 0.93369,0 1.69106,-0.75939 1.69106,-1.69309 V 59.713412 c 0,-0.932338 -0.75737,-1.689024 -1.69106,-1.689024 z m -150.84349,13.20735 h 33.20324 c 1.55798,0 2.0122,0.370202 2.0122,2.813008 V 84.471542 H 346.06911 V 74.044713 c 0,-2.442806 0.45152,-2.813008 2.0122,-2.813008 z m 80.3252,0 h 35.21342 c 1.55796,0 2.01219,0.370202 2.01219,2.813008 v 34.063017 c 0,2.44145 -0.45423,2.81097 -2.01219,2.81097 h -33.20326 c -1.56068,0 -2.01016,-0.36952 -2.01016,-2.81097 z" />
    <path
       id="path1028"
       style="fill:#ffffff;stroke-width:1.35711"
       d="M 296.94716,143.74796 289.25,157.35365 h 3.16464 l 1.5813,-2.97967 h 8.62196 l 1.63414,2.97967 h 3.55894 l -7.80488,-13.60569 z m 49.04268,0 -7.69919,13.60569 h 3.16464 l 1.58333,-2.97967 h 8.62196 l 1.63211,2.97967 h 3.56097 l -7.80488,-13.60569 z m 18.14025,0 v 13.60569 h 13.36788 v -2.5569 h -10.20529 v -11.04879 z m 17.64024,0 7.06707,7.51627 v 6.08942 h 3.18903 v -6.17073 l 7.04065,-7.43496 h -3.71951 l -4.6931,5.22155 -4.66666,-5.22155 z m 20.80081,0 v 2.42683 h 6.24797 v 11.17886 h 3.16463 v -11.17886 h 6.27846 v -2.42683 z m 38.5752,0 c -1.30011,0 -2.18896,0.22222 -2.6626,0.66058 -0.47499,0.4397 -0.71341,1.29071 -0.71341,2.55691 v 7.17072 c 0,1.26483 0.23842,2.11857 0.71341,2.55692 0.47364,0.44106 1.36249,0.66056 2.6626,0.66056 h 8.12196 c 1.30011,0 2.18761,-0.2195 2.66259,-0.66056 0.47364,-0.43835 0.71139,-1.29209 0.71139,-2.55692 v -1.60568 l -3.16464,-0.66057 v 2.92683 h -8.54268 v -8.62196 h 8.54268 v 2.58334 l 3.16464,-0.5 v -1.29268 c 0,-1.2662 -0.23775,-2.11721 -0.71139,-2.55691 -0.47498,-0.43836 -1.36248,-0.66058 -2.66259,-0.66058 z m 24.41464,0 c -1.30012,0 -2.18897,0.22222 -2.6626,0.66058 -0.47499,0.4397 -0.71139,1.29071 -0.71139,2.55691 v 1.50203 c 0,1.26619 0.2364,2.11923 0.71139,2.55894 0.47363,0.4397 1.36248,0.65854 2.6626,0.65854 h 8.48983 v 3.11179 h -9.62397 v -1.60977 l -2.79472,0.58131 v 0.36788 c 0,1.26483 0.24111,2.11857 0.72561,2.55692 0.48313,0.44106 1.37535,0.66259 2.67682,0.66259 h 8.41057 c 1.29877,0 2.19166,-0.22153 2.6748,-0.66259 0.48313,-0.43835 0.72764,-1.29209 0.72764,-2.55692 v -1.86991 c 0,-1.26755 -0.24315,-2.11924 -0.72764,-2.55894 -0.48449,-0.43835 -1.37873,-0.65854 -2.68293,-0.65854 h -8.50812 v -2.92683 h 8.93699 v 1.55487 l 2.79472,-0.65853 v -0.29065 c 0,-1.14269 -0.24991,-1.92346 -0.75204,-2.34553 -0.49942,-0.42205 -1.37476,-0.63415 -2.62195,-0.63415 z m -150.49797,0.002 v 13.60568 h 2.84553 v -7.35772 c 0,-0.56321 -0.0432,-1.28183 -0.13008,-2.16259 0.33248,0.38678 0.71142,0.75623 1.13211,1.10772 l 9.99391,8.41259 h 2.1626 V 143.75 h -2.84756 v 7.14431 c 0,0.29992 0.0439,1.08137 0.13211,2.34756 -0.35285,-0.40442 -0.86954,-0.89816 -1.55488,-1.47764 L 317.22358,143.75 Z m 109.97357,0 v 13.60568 h 3.16261 V 143.75 Z m -126.66462,2.63618 2.92683,5.53658 h -5.95732 z m 49.04268,0 2.92683,5.53658 h -5.95935 z" />
  </g>
</svg>
