<?xml version="1.0" encoding="UTF-8" standalone="no"?>
<svg
   version="1.1"
   x="0"
   y="0"
   width="512"
   height="188.6877"
   viewBox="0 0 512.00002 188.68769"
   data-inject-url="https://rebianalytics.com.au/wp-content/themes/coded/img/logo.svg"
   id="svg891"
   sodipodi:docname="menu_logo_rebi.svg"
   inkscape:version="1.1 (c68e22c387, 2021-05-23)"
   xmlns:inkscape="http://www.inkscape.org/namespaces/inkscape"
   xmlns:sodipodi="http://sodipodi.sourceforge.net/DTD/sodipodi-0.dtd"
   xmlns="http://www.w3.org/2000/svg"
   xmlns:svg="http://www.w3.org/2000/svg">
  <defs
     id="defs895" />
  <sodipodi:namedview
     id="namedview893"
     pagecolor="#ffffff"
     bordercolor="#666666"
     borderopacity="1.0"
     inkscape:pageshadow="2"
     inkscape:pageopacity="0.0"
     inkscape:pagecheckerboard="0"
     showgrid="false"
     fit-margin-top="0"
     fit-margin-left="0"
     fit-margin-right="0"
     fit-margin-bottom="0"
     inkscape:showpageshadow="false"
     lock-margins="true"
     inkscape:snap-page="true"
     inkscape:zoom="3.0968118"
     inkscape:cx="216.02863"
     inkscape:cy="238.14815"
     inkscape:window-width="3840"
     inkscape:window-height="2097"
     inkscape:window-x="-8"
     inkscape:window-y="-8"
     inkscape:window-maximized="1"
     inkscape:current-layer="svg891" />
  <path
     d="m 0,94.34514 c 0,52.10361 42.238936,94.34256 94.343844,94.34256 52.104906,0 94.345146,-42.23895 94.345146,-94.34256 C 188.68899,42.238936 146.44875,0 94.343844,0 42.238936,0 0,42.238936 0,94.34514 Z m 118.41635,41.95701 c -0.77042,0 -1.50835,-0.3066 -2.05401,-0.85096 L 80.341283,99.45482 c -2.493126,-2.530801 -1.358941,-4.955075 2.051405,-4.955075 h 25.582152 c 0.77041,0 1.50835,0.305312 2.0527,0.84966 l 36.02367,35.996385 c 2.43856,2.5542 1.15626,4.95636 -2.05271,4.95636 z m 26.20966,-41.681583 h -18.24569 c -1.60319,0 -2.90236,-1.300473 -2.90236,-2.903668 V 74.318286 c 0,-4.193753 -0.77692,-4.826453 -3.45323,-4.826453 H 68.664255 c -2.67631,0 -3.45452,0.6327 -3.45452,4.826453 v 58.868444 c 0,1.60449 -1.299179,2.90366 -2.901068,2.90366 H 44.061686 c -1.604489,0 -2.903668,-1.29917 -2.903668,-2.90366 V 74.318286 c 0,-15.190011 12.314926,-27.504937 27.506237,-27.504937 h 51.360475 c 15.19002,0 27.50494,12.314926 27.50494,27.504937 v 17.398613 c 0,1.603195 -1.30048,2.903668 -2.90366,2.903668 z"
     fill="#fffffe"
     id="path888"
     style="fill:#ffffff;stroke-width:1.29918"
     sodipodi:nodetypes="ssscssccsscccsssssssssssssssscs" />
  <path
     id="path841"
     style="fill:#ffffff;stroke-width:1.41411"
     d="m 503.93722,49.599213 c -4.45162,0 -8.06066,3.609737 -8.06066,8.062778 0,4.453043 3.60904,8.062788 8.06066,8.062788 4.45304,0 8.06278,-3.609745 8.06278,-8.062788 0,-4.453041 -3.60974,-8.062778 -8.06278,-8.062778 z m -91.88017,0.171542 c -0.97291,0 -1.76209,0.789174 -1.76209,1.762081 v 70.860194 c 0,9.2186 7.47386,16.69316 16.69529,16.69316 H 461.588 c 9.21862,0 16.69317,-7.47456 16.69317,-16.69316 V 86.899385 c 0,-9.218597 -7.47455,-16.695277 -16.69317,-16.695277 H 424.89567 V 51.532836 c 0,-0.972907 -0.7899,-1.762081 -1.76421,-1.762081 z m -70.86019,20.433353 c -9.22143,0 -16.69528,7.47668 -16.69528,16.695277 v 35.493645 c 0,9.2186 7.47386,16.69316 16.69528,16.69316 h 34.59776 c 9.2186,0 16.69528,-7.47456 16.69528,-16.69316 v -1.68586 c 0,-0.97289 -0.79059,-1.76418 -1.76207,-1.76418 H 379.6513 c -0.97291,0 -1.75996,0.79129 -1.75996,1.76418 v 1.68586 c 0,2.54398 -0.47331,2.92902 -2.09672,2.92902 h -34.59776 c -1.62622,0 -2.09671,-0.38504 -2.09671,-2.92902 v -10.86477 h 51.62768 c 0.97148,0 1.76207,-0.79269 1.76207,-1.76419 V 86.899385 c 0,-9.218597 -7.47667,-16.695277 -16.69528,-16.695277 z m -81.43053,0.0023 c -9.21862,0 -16.69317,7.47457 -16.69317,16.693166 V 137.3243 c 0,0.97574 0.78776,1.76208 1.76207,1.76208 h 11.07443 c 0.97291,0 1.75996,-0.78634 1.75996,-1.76208 V 86.89962 c 0,-2.5454 0.47331,-2.929033 2.09671,-2.929033 h 34.59988 c 1.6248,0 2.0967,0.383633 2.0967,2.929033 v 9.121734 c 0,0.975737 0.78706,1.764199 1.75996,1.764199 h 11.07443 c 0.97431,0 1.76207,-0.788462 1.76207,-1.764199 V 86.89962 c 0,-9.218598 -7.47316,-16.693167 -16.69316,-16.693167 z m 238.60933,0 c -0.97573,0 -1.76208,0.788472 -1.76208,1.759971 V 137.3243 c 0,0.97291 0.78635,1.7642 1.76208,1.7642 h 11.07228 c 0.97292,0 1.76209,-0.79129 1.76209,-1.7642 V 71.966423 c 0,-0.971499 -0.78917,-1.75997 -1.76209,-1.75997 z m -157.1788,13.7619 h 34.59776 c 1.62341,0 2.09672,0.385744 2.09672,2.931144 V 97.764185 H 339.10015 V 86.89944 c 0,-2.5454 0.47048,-2.931144 2.09671,-2.931144 z m 83.69881,0 H 461.588 c 1.62342,0 2.09671,0.385744 2.09671,2.931144 v 35.493638 c 0,2.54398 -0.47329,2.92903 -2.09671,2.92903 h -34.59775 c -1.62623,0 -2.09458,-0.38505 -2.09458,-2.92903 z" />
</svg>
